<svg width="128" height="128" viewBox="0 0 128 128" fill="none" xmlns="http://www.w3.org/2000/svg">
<path d="M107.029 41.1178C107.502 40.9291 108.214 40.5781 108.613 40.3393C109.012 40.1004 109.393 39.9025 109.458 39.8999C109.524 39.8972 109.635 40.2575 109.635 40.2575L121.676 98.8749L123 105.637C123 105.894 122.933 106 122.769 106C122.642 106 121.35 105.274 121.35 105.274C120.996 104.976 90.8549 89.8273 90.7335 89.4737L88.2085 67.2406C88.1715 67.1284 87.9293 67.2217 87.4614 67.5243L85.531 68.7237L65.0559 81.7389C64.8025 81.8748 64.3854 81.987 64.132 81.9883C63.7796 81.9896 63.1671 81.6875 61.5582 80.719C61.5582 80.719 39.9486 67.2221 39.9116 67.2406C39.876 67.2591 39.7189 68.1312 39.7189 68.1312C39.7189 68.1312 37.2678 89.12 37.0738 89.5066C36.9286 89.7969 36.6171 90.1664 36.3809 90.3273C36.3809 90.3273 5.51081 105.868 5.32998 105.868C5.05148 105.868 5 105.806 5 105.472L5.19403 104.186L5.79195 101.382C6.29615 98.987 18.7455 40.0793 18.7627 40.0648C18.7785 40.049 19.1494 40.2495 19.585 40.5108C20.0206 40.7707 20.7637 41.1296 21.2349 41.3078C21.7061 41.4846 22.4796 41.7102 22.9508 41.8092C23.422 41.9081 24.5637 42.0374 25.4863 42.0968C27.0702 42.1971 27.1613 42.2182 27.1045 42.4676C27.0715 42.6127 20.1222 77.8953 20.1222 77.8953L18.434 86.5655C18.434 86.5655 18.0302 88.8693 18.0671 88.9102C18.1028 88.9525 23.2148 86.5352 23.2148 86.5352C23.2148 86.5352 28.4614 83.924 28.6634 83.7274C28.864 83.5321 29.0844 83.193 29.1517 82.9753C29.219 82.7576 33.2698 57.5755 33.2698 57.5755C33.2698 57.5755 33.9839 53.2424 34.0262 53.1869C34.0684 53.1328 63.505 71.641 63.505 71.641C63.7043 71.7426 64.0317 71.8244 64.231 71.8231C64.4303 71.8218 92.4045 54.3072 92.84 54.0261C93.566 53.5788 94.1731 53.2292 94.189 53.249C94.2048 53.2701 94.4543 54.8904 94.7433 56.8498C94.8133 57.1084 99.1796 83.5717 99.462 83.825C99.7617 84.0942 101.472 85.0152 103.663 86.0839C105.696 87.0775 107.953 88.1687 109.999 89.1306L109.892 88.4273C109.892 88.4273 101.054 42.2472 101.089 42.2076C101.125 42.1667 101.868 42.081 102.739 42.0163C103.611 41.9503 104.739 41.7999 105.247 41.6798C105.755 41.5611 106.557 41.3078 107.029 41.1178Z" fill="#C2CFE0"/>
<path fill-rule="evenodd" clip-rule="evenodd" d="M23.1157 22.0884C23.4972 22.0198 24.3736 21.9828 25.0626 22.0079C25.976 22.0409 26.603 22.149 27.3726 22.405C27.9533 22.5989 28.8442 23.0027 29.3524 23.3036C29.8606 23.6031 30.663 24.2405 31.1342 24.7181C31.6397 25.2301 32.1902 25.965 32.474 26.506C32.7393 27.0127 33.0903 27.8413 33.2553 28.3493C33.51 29.1383 33.5523 29.5421 33.5431 31.1202C33.5352 32.3789 33.5866 33.0729 33.7014 33.2972C33.7937 33.4805 59.7585 52.5014 59.7954 52.5285L61.5581 53.716L61.4922 61.1381L28.6264 39.4355C28.2251 39.2283 28.0087 39.2124 26.9765 39.3113C26.3231 39.3747 25.3437 39.4209 24.7986 39.413C24.2548 39.4051 23.422 39.3021 22.9508 39.1847C22.4796 39.0659 21.5887 38.7216 20.971 38.4181C20.0774 37.9801 19.618 37.637 18.7179 36.7372C17.8137 35.8334 17.4745 35.3807 17.035 34.4848C16.7327 33.8673 16.3974 32.9475 16.2892 32.4395C16.181 31.9316 16.0913 31.1452 16.0899 30.6913C16.0886 30.2374 16.1809 29.4061 16.2944 28.844C16.4093 28.2819 16.7024 27.4059 16.9465 26.8979C17.1907 26.3899 17.6778 25.6179 18.0302 25.1825C18.3813 24.747 19.0835 24.0781 19.589 23.6968C20.0945 23.3155 20.9392 22.826 21.4658 22.6083C21.9925 22.3919 22.7343 22.157 23.1157 22.0884ZM25.1947 26.5086C24.7948 26.4729 24.1717 26.5192 23.8088 26.6102C23.4458 26.7013 22.9151 26.9216 22.63 27.0997C22.3449 27.2792 21.8816 27.6935 21.6018 28.0194C21.322 28.3466 20.9933 28.91 20.8706 29.2729C20.7478 29.6357 20.6514 30.3193 20.6541 30.7903C20.6581 31.3458 20.7518 31.8565 20.9208 32.2417C21.0646 32.569 21.4461 33.1218 21.7694 33.4727C22.0941 33.825 22.6815 34.2645 23.0828 34.4571C23.6648 34.7342 24.0041 34.8027 24.7986 34.8041C25.5892 34.8054 25.9351 34.7367 26.5145 34.4663C26.9144 34.2789 27.4741 33.895 27.7592 33.6126C28.0456 33.3302 28.4258 32.7721 28.6066 32.3737C28.8455 31.8446 28.9352 31.4157 28.9366 30.7903C28.9379 30.3193 28.8429 29.6357 28.7241 29.2729C28.5935 28.877 28.2541 28.3308 27.874 27.9086C27.5137 27.5075 26.9554 27.0667 26.5806 26.8886C26.2176 26.7157 25.5946 26.5442 25.1947 26.5086Z" fill="#C2CFE0"/>
<path fill-rule="evenodd" clip-rule="evenodd" d="M101.683 22.1596C102.318 22.0184 102.99 21.9736 103.828 22.0172C104.61 22.0594 105.394 22.1952 106.006 22.3984C106.533 22.5726 107.319 22.9223 107.755 23.1769C108.191 23.4316 108.814 23.8722 109.141 24.1572C109.468 24.4422 109.953 24.9675 110.219 25.325C110.485 25.6826 110.881 26.3304 111.097 26.7658C111.315 27.2013 111.597 27.9428 111.727 28.4152C111.886 28.9984 111.959 29.7162 111.952 30.6583C111.946 31.7732 111.877 32.2496 111.601 33.0993C111.414 33.6799 111.035 34.5401 110.762 35.0112C110.487 35.4836 109.833 36.2991 109.306 36.8256C108.555 37.5763 108.085 37.9128 107.128 38.3798C106.456 38.7084 105.491 39.0634 104.983 39.169C104.475 39.2758 103.793 39.3641 103.465 39.3654C103.138 39.3667 102.515 39.3035 102.079 39.2244C101.644 39.1452 101.021 39.1214 100.693 39.1715C100.194 39.249 77.2555 54.0421 66.6451 61.138C66.5567 60.9794 66.6464 53.7716 66.6451 53.7161C67.1889 53.3242 93.6941 34.267 93.9316 34.0863C94.1692 33.9068 94.4424 33.5519 94.5388 33.2973C94.6642 32.9687 94.6972 32.3789 94.6549 31.2521C94.6088 30.0435 94.647 29.4655 94.816 28.8111C94.9374 28.3401 95.2383 27.5378 95.4838 27.0298C95.7293 26.5218 96.1991 25.7645 96.5291 25.3475C96.8591 24.9306 97.4716 24.3156 97.8886 23.9817C98.3057 23.6479 99.1228 23.1466 99.7036 22.8695C100.284 22.5924 101.175 22.2731 101.683 22.1596ZM103.676 26.5444C103.332 26.5483 102.812 26.6262 102.522 26.7146C102.231 26.8043 101.76 27.0234 101.475 27.2015C101.19 27.3797 100.725 27.7926 100.444 28.1185C100.129 28.4827 99.8513 28.9921 99.7246 29.438C99.5873 29.9196 99.5386 30.4739 99.5795 31.0874C99.6191 31.6666 99.7485 32.2195 99.9267 32.5718C100.084 32.8805 100.404 33.3502 100.641 33.6154C100.877 33.882 101.426 34.2673 101.862 34.4731C102.504 34.7766 102.834 34.8478 103.611 34.8478C104.243 34.8478 104.802 34.7593 105.26 34.5865C105.642 34.444 106.137 34.1617 106.36 33.9598C106.584 33.7593 106.955 33.2974 107.186 32.9346C107.416 32.5717 107.669 31.9477 107.75 31.5492C107.857 31.0096 107.854 30.6202 107.738 30.0318C107.652 29.5963 107.446 29.0025 107.278 28.7123C107.111 28.422 106.715 27.943 106.398 27.6475C106.08 27.3532 105.479 26.9812 105.062 26.8229C104.644 26.6645 104.022 26.5391 103.676 26.5444Z" fill="#C2CFE0"/>
</svg>
