<svg width="1200" height="400" viewBox="0 0 1200 400" fill="none" xmlns="http://www.w3.org/2000/svg">
<path d="M297.614 144.112C298.779 143.647 300.537 142.782 301.52 142.193C302.503 141.605 303.444 141.117 303.603 141.11C303.766 141.104 304.04 141.992 304.04 141.992L333.735 286.442L337 303.106C337 303.74 336.834 304 336.43 304C336.118 304 332.931 302.212 332.931 302.212C332.059 301.477 257.727 264.146 257.427 263.274L251.201 208.486C251.109 208.209 250.512 208.439 249.358 209.185L244.598 212.141L194.104 244.214C193.479 244.549 192.45 244.825 191.826 244.828C190.956 244.832 189.446 244.087 185.478 241.7C185.478 241.7 132.187 208.44 132.096 208.486C132.008 208.531 131.62 210.681 131.62 210.681C131.62 210.681 125.576 262.403 125.097 263.356C124.739 264.071 123.971 264.981 123.388 265.378C123.388 265.378 47.2597 303.675 46.8138 303.675C46.1269 303.675 46 303.522 46 302.699L46.4785 299.529L47.953 292.62C49.1964 286.718 79.8979 141.553 79.9402 141.517C79.9793 141.478 80.894 141.972 81.9681 142.616C83.0423 143.256 84.8749 144.141 86.0369 144.58C87.199 145.016 89.1064 145.572 90.2685 145.815C91.4305 146.059 94.2461 146.378 96.5214 146.524C100.427 146.771 100.652 146.823 100.512 147.438C100.431 147.796 83.2929 234.742 83.2929 234.742L79.1297 256.108C79.1297 256.108 78.1337 261.785 78.2248 261.886C78.3127 261.99 90.9195 256.033 90.9195 256.033C90.9195 256.033 103.858 249.598 104.356 249.114C104.851 248.633 105.395 247.797 105.561 247.26C105.727 246.724 115.716 184.668 115.716 184.668C115.716 184.668 117.477 173.99 117.581 173.854C117.686 173.72 190.279 219.33 190.279 219.33C190.771 219.58 191.578 219.782 192.07 219.778C192.561 219.775 261.548 176.614 262.622 175.922C264.413 174.819 265.91 173.958 265.949 174.006C265.988 174.058 266.603 178.051 267.316 182.88C267.489 183.517 278.256 248.73 278.953 249.354C279.692 250.018 283.91 252.287 289.314 254.921C294.327 257.37 299.893 260.059 304.938 262.429L304.674 260.696C304.674 260.696 282.879 146.895 282.966 146.797C283.054 146.697 284.887 146.485 287.035 146.326C289.184 146.163 291.967 145.793 293.22 145.497C294.473 145.204 296.449 144.58 297.614 144.112Z" fill="#081626"/>
<path fill-rule="evenodd" clip-rule="evenodd" d="M90.6753 97.2179C91.616 97.0488 93.7773 96.9576 95.4764 97.0194C97.7289 97.1007 99.2753 97.3672 101.173 97.998C102.605 98.476 104.802 99.471 106.055 100.212C107.309 100.95 109.288 102.521 110.45 103.698C111.696 104.96 113.054 106.771 113.754 108.104C114.408 109.353 115.274 111.395 115.68 112.646C116.309 114.591 116.413 115.586 116.39 119.475C116.371 122.577 116.497 124.287 116.781 124.84C117.008 125.291 181.04 172.164 181.131 172.231L185.478 175.157L185.315 193.447L104.265 139.966C103.276 139.455 102.742 139.416 100.196 139.66C98.585 139.816 96.1697 139.93 94.8254 139.911C93.4844 139.891 91.4306 139.637 90.2686 139.348C89.1066 139.055 86.9094 138.207 85.3861 137.459C83.1825 136.38 82.0495 135.534 79.8296 133.317C77.6 131.089 76.7634 129.974 75.6795 127.766C74.9341 126.244 74.1072 123.978 73.8403 122.726C73.5734 121.474 73.3522 119.536 73.3489 118.418C73.3457 117.299 73.5733 115.251 73.8532 113.866C74.1364 112.48 74.8592 110.322 75.4614 109.07C76.0635 107.818 77.2648 105.916 78.1338 104.843C78.9997 103.77 80.7313 102.121 81.9779 101.181C83.2245 100.242 85.3077 99.0356 86.6065 98.499C87.9052 97.9658 89.7345 97.387 90.6753 97.2179ZM95.8021 108.11C94.8159 108.023 93.2795 108.137 92.3843 108.361C91.4892 108.585 90.1805 109.128 89.4775 109.567C88.7744 110.009 87.6318 111.03 86.9418 111.834C86.2517 112.64 85.4411 114.028 85.1384 114.922C84.8357 115.817 84.5981 117.501 84.6046 118.662C84.6144 120.031 84.8456 121.289 85.2622 122.239C85.6171 123.045 86.5576 124.407 87.3551 125.272C88.1558 126.14 89.6044 127.223 90.5939 127.698C92.0294 128.381 92.866 128.55 94.8254 128.553C96.7752 128.556 97.628 128.387 99.0569 127.72C100.043 127.259 101.423 126.313 102.126 125.617C102.833 124.921 103.77 123.546 104.216 122.564C104.805 121.26 105.027 120.203 105.03 118.662C105.033 117.501 104.799 115.817 104.506 114.922C104.184 113.947 103.347 112.601 102.41 111.56C101.521 110.572 100.144 109.486 99.2199 109.047C98.3248 108.621 96.7884 108.198 95.8021 108.11Z" fill="#081626"/>
<path fill-rule="evenodd" clip-rule="evenodd" d="M284.431 97.3933C285.997 97.0453 287.654 96.935 289.721 97.0423C291.648 97.1464 293.581 97.4811 295.092 97.9818C296.39 98.411 298.33 99.2727 299.404 99.9002C300.479 100.528 302.015 101.614 302.822 102.316C303.629 103.018 304.824 104.313 305.481 105.194C306.136 106.075 307.112 107.671 307.646 108.744C308.183 109.817 308.88 111.645 309.199 112.809C309.593 114.246 309.772 116.015 309.755 118.336C309.739 121.084 309.57 122.258 308.89 124.352C308.427 125.783 307.493 127.902 306.819 129.063C306.142 130.227 304.528 132.237 303.229 133.534C301.377 135.384 300.218 136.214 297.858 137.365C296.202 138.174 293.822 139.049 292.569 139.309C291.316 139.573 289.633 139.79 288.825 139.793C288.018 139.797 286.482 139.641 285.408 139.446C284.333 139.251 282.797 139.192 281.99 139.316C280.759 139.507 224.189 175.961 198.023 193.447C197.805 193.056 198.026 175.294 198.023 175.157C199.364 174.192 264.729 127.229 265.314 126.784C265.9 126.342 266.574 125.467 266.812 124.84C267.121 124.03 267.202 122.577 267.098 119.8C266.984 116.822 267.079 115.397 267.495 113.785C267.795 112.624 268.537 110.647 269.142 109.395C269.748 108.143 270.906 106.277 271.72 105.249C272.534 104.222 274.044 102.706 275.073 101.884C276.101 101.061 278.116 99.8255 279.549 99.1427C280.981 98.4598 283.178 97.6729 284.431 97.3933ZM289.346 108.199C288.497 108.208 287.214 108.4 286.498 108.618C285.782 108.839 284.62 109.379 283.917 109.818C283.214 110.257 282.068 111.275 281.375 112.078C280.597 112.975 279.913 114.23 279.6 115.329C279.262 116.516 279.142 117.882 279.243 119.394C279.34 120.821 279.659 122.184 280.099 123.052C280.486 123.813 281.277 124.97 281.86 125.624C282.442 126.281 283.796 127.23 284.87 127.737C286.456 128.485 287.27 128.661 289.184 128.661C290.743 128.661 292.123 128.443 293.252 128.017C294.193 127.666 295.414 126.97 295.964 126.472C296.517 125.978 297.432 124.84 298.001 123.946C298.568 123.052 299.193 121.514 299.391 120.532C299.655 119.202 299.648 118.243 299.362 116.793C299.15 115.72 298.643 114.256 298.229 113.541C297.816 112.826 296.839 111.645 296.058 110.917C295.274 110.192 293.793 109.275 292.764 108.885C291.732 108.495 290.199 108.186 289.346 108.199Z" fill="#081626"/>
<path d="M390.818 268V198.182H401.182V209.091H402.091C403.545 205.364 405.894 202.47 409.136 200.409C412.379 198.318 416.273 197.273 420.818 197.273C425.424 197.273 429.258 198.318 432.318 200.409C435.409 202.47 437.818 205.364 439.545 209.091H440.273C442.061 205.485 444.742 202.621 448.318 200.5C451.894 198.348 456.182 197.273 461.182 197.273C467.424 197.273 472.53 199.227 476.5 203.136C480.47 207.015 482.455 213.061 482.455 221.273V268H471.727V221.273C471.727 216.121 470.318 212.439 467.5 210.227C464.682 208.015 461.364 206.909 457.545 206.909C452.636 206.909 448.833 208.394 446.136 211.364C443.439 214.303 442.091 218.03 442.091 222.545V268H431.182V220.182C431.182 216.212 429.894 213.015 427.318 210.591C424.742 208.136 421.424 206.909 417.364 206.909C414.576 206.909 411.97 207.652 409.545 209.136C407.152 210.621 405.212 212.682 403.727 215.318C402.273 217.924 401.545 220.939 401.545 224.364V268H390.818ZM525.312 269.455C518.766 269.455 513.13 267.909 508.403 264.818C503.675 261.727 500.039 257.47 497.494 252.045C494.948 246.621 493.675 240.424 493.675 233.455C493.675 226.364 494.978 220.106 497.585 214.682C500.221 209.227 503.888 204.97 508.585 201.909C513.312 198.818 518.827 197.273 525.13 197.273C530.039 197.273 534.463 198.182 538.403 200C542.342 201.818 545.569 204.364 548.085 207.636C550.6 210.909 552.16 214.727 552.766 219.091H542.039C541.221 215.909 539.403 213.091 536.585 210.636C533.797 208.152 530.039 206.909 525.312 206.909C521.13 206.909 517.463 208 514.312 210.182C511.191 212.333 508.751 215.379 506.994 219.318C505.266 223.227 504.403 227.818 504.403 233.091C504.403 238.485 505.251 243.182 506.948 247.182C508.675 251.182 511.1 254.288 514.221 256.5C517.372 258.712 521.069 259.818 525.312 259.818C528.1 259.818 530.63 259.333 532.903 258.364C535.175 257.394 537.1 256 538.675 254.182C540.251 252.364 541.372 250.182 542.039 247.636H552.766C552.16 251.758 550.66 255.47 548.266 258.773C545.903 262.045 542.766 264.652 538.857 266.591C534.978 268.5 530.463 269.455 525.312 269.455ZM563.328 294.182V198.182H573.692V209.273H574.965C575.752 208.061 576.843 206.515 578.237 204.636C579.662 202.727 581.692 201.03 584.328 199.545C586.995 198.03 590.601 197.273 595.146 197.273C601.025 197.273 606.207 198.742 610.692 201.682C615.177 204.621 618.677 208.788 621.192 214.182C623.707 219.576 624.965 225.939 624.965 233.273C624.965 240.667 623.707 247.076 621.192 252.5C618.677 257.894 615.192 262.076 610.737 265.045C606.283 267.985 601.146 269.455 595.328 269.455C590.843 269.455 587.252 268.712 584.555 267.227C581.858 265.712 579.783 264 578.328 262.091C576.874 260.152 575.752 258.545 574.965 257.273H574.055V294.182H563.328ZM573.874 233.091C573.874 238.364 574.646 243.015 576.192 247.045C577.737 251.045 579.995 254.182 582.965 256.455C585.934 258.697 589.571 259.818 593.874 259.818C598.358 259.818 602.101 258.636 605.101 256.273C608.131 253.879 610.404 250.667 611.919 246.636C613.465 242.576 614.237 238.061 614.237 233.091C614.237 228.182 613.48 223.758 611.965 219.818C610.48 215.848 608.222 212.712 605.192 210.409C602.192 208.076 598.419 206.909 593.874 206.909C589.51 206.909 585.843 208.015 582.874 210.227C579.904 212.409 577.662 215.47 576.146 219.409C574.631 223.318 573.874 227.879 573.874 233.091ZM718.838 218.091L701.111 219.182C700.808 217.667 700.156 216.303 699.156 215.091C698.156 213.848 696.838 212.864 695.202 212.136C693.596 211.379 691.672 211 689.429 211C686.429 211 683.899 211.636 681.838 212.909C679.778 214.152 678.747 215.818 678.747 217.909C678.747 219.576 679.414 220.985 680.747 222.136C682.081 223.288 684.368 224.212 687.611 224.909L700.247 227.455C707.035 228.848 712.096 231.091 715.429 234.182C718.762 237.273 720.429 241.333 720.429 246.364C720.429 250.939 719.081 254.955 716.384 258.409C713.717 261.864 710.05 264.561 705.384 266.5C700.747 268.409 695.399 269.364 689.338 269.364C680.096 269.364 672.732 267.439 667.247 263.591C661.793 259.712 658.596 254.439 657.656 247.773L676.702 246.773C677.278 249.591 678.672 251.742 680.884 253.227C683.096 254.682 685.929 255.409 689.384 255.409C692.778 255.409 695.505 254.758 697.565 253.455C699.656 252.121 700.717 250.409 700.747 248.318C700.717 246.561 699.975 245.121 698.52 244C697.065 242.848 694.823 241.97 691.793 241.364L679.702 238.955C672.884 237.591 667.808 235.227 664.475 231.864C661.172 228.5 659.52 224.212 659.52 219C659.52 214.515 660.732 210.652 663.156 207.409C665.611 204.167 669.05 201.667 673.475 199.909C677.929 198.152 683.141 197.273 689.111 197.273C697.929 197.273 704.868 199.136 709.929 202.864C715.02 206.591 717.99 211.667 718.838 218.091ZM739.457 294.182C737.002 294.182 734.699 293.985 732.548 293.591C730.427 293.227 728.669 292.758 727.275 292.182L731.639 277.727C733.911 278.424 735.957 278.803 737.775 278.864C739.623 278.924 741.214 278.5 742.548 277.591C743.911 276.682 745.017 275.136 745.866 272.955L747.002 270L721.957 198.182H742.32L756.775 249.455H757.502L772.093 198.182H792.593L765.457 275.545C764.154 279.303 762.381 282.576 760.139 285.364C757.927 288.182 755.123 290.348 751.73 291.864C748.336 293.409 744.245 294.182 739.457 294.182ZM816.746 227.636V268H797.382V198.182H815.837V210.5H816.655C818.2 206.439 820.791 203.227 824.428 200.864C828.064 198.47 832.473 197.273 837.655 197.273C842.503 197.273 846.731 198.333 850.337 200.455C853.943 202.576 856.746 205.606 858.746 209.545C860.746 213.455 861.746 218.121 861.746 223.545V268H842.382V227C842.413 222.727 841.322 219.394 839.11 217C836.897 214.576 833.852 213.364 829.973 213.364C827.367 213.364 825.064 213.924 823.064 215.045C821.094 216.167 819.549 217.803 818.428 219.955C817.337 222.076 816.776 224.636 816.746 227.636ZM891.796 269.318C887.342 269.318 883.372 268.545 879.887 267C876.402 265.424 873.645 263.106 871.615 260.045C869.615 256.955 868.615 253.106 868.615 248.5C868.615 244.621 869.327 241.364 870.751 238.727C872.175 236.091 874.115 233.97 876.569 232.364C879.024 230.758 881.812 229.545 884.933 228.727C888.084 227.909 891.387 227.333 894.842 227C898.902 226.576 902.175 226.182 904.66 225.818C907.145 225.424 908.948 224.848 910.069 224.091C911.19 223.333 911.751 222.212 911.751 220.727V220.455C911.751 217.576 910.842 215.348 909.024 213.773C907.236 212.197 904.69 211.409 901.387 211.409C897.902 211.409 895.13 212.182 893.069 213.727C891.008 215.242 889.645 217.152 888.978 219.455L871.069 218C871.978 213.758 873.766 210.091 876.433 207C879.099 203.879 882.539 201.485 886.751 199.818C890.993 198.121 895.902 197.273 901.478 197.273C905.357 197.273 909.069 197.727 912.615 198.636C916.19 199.545 919.357 200.955 922.115 202.864C924.902 204.773 927.099 207.227 928.705 210.227C930.312 213.197 931.115 216.758 931.115 220.909V268H912.751V258.318H912.205C911.084 260.5 909.584 262.424 907.705 264.091C905.827 265.727 903.569 267.015 900.933 267.955C898.296 268.864 895.251 269.318 891.796 269.318ZM897.342 255.955C900.19 255.955 902.705 255.394 904.887 254.273C907.069 253.121 908.781 251.576 910.024 249.636C911.266 247.697 911.887 245.5 911.887 243.045V235.636C911.281 236.03 910.448 236.394 909.387 236.727C908.357 237.03 907.19 237.318 905.887 237.591C904.584 237.833 903.281 238.061 901.978 238.273C900.675 238.455 899.493 238.621 898.433 238.773C896.16 239.106 894.175 239.636 892.478 240.364C890.781 241.091 889.463 242.076 888.524 243.318C887.584 244.53 887.115 246.045 887.115 247.864C887.115 250.5 888.069 252.515 889.978 253.909C891.918 255.273 894.372 255.955 897.342 255.955ZM941.017 294.182V198.182H960.108V209.909H960.972C961.82 208.03 963.048 206.121 964.654 204.182C966.29 202.212 968.411 200.576 971.017 199.273C973.654 197.939 976.926 197.273 980.835 197.273C985.926 197.273 990.623 198.606 994.926 201.273C999.229 203.909 1002.67 207.894 1005.24 213.227C1007.82 218.53 1009.11 225.182 1009.11 233.182C1009.11 240.97 1007.85 247.545 1005.34 252.909C1002.85 258.242 999.457 262.288 995.154 265.045C990.881 267.773 986.093 269.136 980.79 269.136C977.032 269.136 973.835 268.515 971.199 267.273C968.593 266.03 966.457 264.47 964.79 262.591C963.123 260.682 961.851 258.758 960.972 256.818H960.381V294.182H941.017ZM959.972 233.091C959.972 237.242 960.548 240.864 961.699 243.955C962.851 247.045 964.517 249.455 966.699 251.182C968.881 252.879 971.532 253.727 974.654 253.727C977.805 253.727 980.472 252.864 982.654 251.136C984.835 249.379 986.487 246.955 987.608 243.864C988.76 240.742 989.335 237.152 989.335 233.091C989.335 229.061 988.775 225.515 987.654 222.455C986.532 219.394 984.881 217 982.699 215.273C980.517 213.545 977.835 212.682 974.654 212.682C971.502 212.682 968.835 213.515 966.654 215.182C964.502 216.848 962.851 219.212 961.699 222.273C960.548 225.333 959.972 228.939 959.972 233.091ZM1074.99 218.091L1057.26 219.182C1056.96 217.667 1056.31 216.303 1055.31 215.091C1054.31 213.848 1052.99 212.864 1051.35 212.136C1049.75 211.379 1047.82 211 1045.58 211C1042.58 211 1040.05 211.636 1037.99 212.909C1035.93 214.152 1034.9 215.818 1034.9 217.909C1034.9 219.576 1035.56 220.985 1036.9 222.136C1038.23 223.288 1040.52 224.212 1043.76 224.909L1056.4 227.455C1063.19 228.848 1068.25 231.091 1071.58 234.182C1074.91 237.273 1076.58 241.333 1076.58 246.364C1076.58 250.939 1075.23 254.955 1072.53 258.409C1069.87 261.864 1066.2 264.561 1061.53 266.5C1056.9 268.409 1051.55 269.364 1045.49 269.364C1036.25 269.364 1028.88 267.439 1023.4 263.591C1017.94 259.712 1014.75 254.439 1013.81 247.773L1032.85 246.773C1033.43 249.591 1034.82 251.742 1037.03 253.227C1039.25 254.682 1042.08 255.409 1045.53 255.409C1048.93 255.409 1051.65 254.758 1053.72 253.455C1055.81 252.121 1056.87 250.409 1056.9 248.318C1056.87 246.561 1056.12 245.121 1054.67 244C1053.22 242.848 1050.97 241.97 1047.94 241.364L1035.85 238.955C1029.03 237.591 1023.96 235.227 1020.62 231.864C1017.32 228.5 1015.67 224.212 1015.67 219C1015.67 214.515 1016.88 210.652 1019.31 207.409C1021.76 204.167 1025.2 201.667 1029.62 199.909C1034.08 198.152 1039.29 197.273 1045.26 197.273C1054.08 197.273 1061.02 199.136 1066.08 202.864C1071.17 206.591 1074.14 211.667 1074.99 218.091ZM1115.47 269.364C1108.29 269.364 1102.11 267.909 1096.92 265C1091.77 262.061 1087.8 257.909 1085.02 252.545C1082.23 247.152 1080.83 240.773 1080.83 233.409C1080.83 226.227 1082.23 219.924 1085.02 214.5C1087.8 209.076 1091.73 204.848 1096.79 201.818C1101.88 198.788 1107.85 197.273 1114.7 197.273C1119.3 197.273 1123.59 198.015 1127.56 199.5C1131.56 200.955 1135.05 203.152 1138.02 206.091C1141.02 209.03 1143.35 212.727 1145.02 217.182C1146.68 221.606 1147.52 226.788 1147.52 232.727V238.045H1088.56V226.045H1129.29C1129.29 223.258 1128.68 220.788 1127.47 218.636C1126.26 216.485 1124.58 214.803 1122.42 213.591C1120.3 212.348 1117.83 211.727 1115.02 211.727C1112.08 211.727 1109.47 212.409 1107.2 213.773C1104.96 215.106 1103.2 216.909 1101.92 219.182C1100.65 221.424 1100 223.924 1099.97 226.682V238.091C1099.97 241.545 1100.61 244.53 1101.88 247.045C1103.18 249.561 1105.02 251.5 1107.38 252.864C1109.74 254.227 1112.55 254.909 1115.79 254.909C1117.94 254.909 1119.91 254.606 1121.7 254C1123.49 253.394 1125.02 252.485 1126.29 251.273C1127.56 250.061 1128.53 248.576 1129.2 246.818L1147.11 248C1146.2 252.303 1144.33 256.061 1141.52 259.273C1138.73 262.455 1135.12 264.939 1130.7 266.727C1126.3 268.485 1121.23 269.364 1115.47 269.364Z" fill="#081626"/>
</svg>
